<?xml version="1.0" encoding="utf-8"?>
<!-- Svg Vector Icons : http://www.onlinewebfonts.com/icon -->
<!DOCTYPE svg PUBLIC "-//W3C//DTD SVG 1.1//EN" "http://www.w3.org/Graphics/SVG/1.1/DTD/svg11.dtd">
<svg version="1.1" xmlns="http://www.w3.org/2000/svg" xmlns:xlink="http://www.w3.org/1999/xlink" x="0px" y="0px" viewBox="0 0 256 256" enable-background="new 0 0 256 256" xml:space="preserve">
<metadata> Svg Vector Icons : http://www.onlinewebfonts.com/icon </metadata>
<g><g><g><path fill="#000000" d="M120.9,6.4c-5.6,1.2-11.5,4.5-15.9,8.9C94.4,25.9,92.4,42,100.1,55c2.1,3.7,7.5,9.1,11.2,11.2c10.3,6.1,23.2,6.1,33.5,0c3.6-2.1,9-7.5,11.2-11.2c3.7-6.3,5.3-14.1,4.3-20.8c-1.2-8-3.9-13.5-9.6-19.2C142.9,7.4,131.7,4.1,120.9,6.4z"/><path fill="#000000" d="M54.6,46.9c-3.6,0.8-7.3,2.9-10.1,5.7c-7.3,7.3-8,18.9-1.5,27c7.4,9.4,21.6,10.2,30.2,1.7c10.3-10.3,6.6-28.1-7-33.2C62.8,46.8,57.8,46.3,54.6,46.9z"/><path fill="#000000" d="M192.4,47.2c-10.1,2.8-16,11-15.3,21.2c0.6,10,8.6,18,18.7,18.7c9.2,0.7,17.2-4.4,20.5-12.9c1.6-4.1,1.6-10.5,0-14.4c-2.3-5.6-6.9-10.1-12.2-12C200.6,46.5,195.5,46.3,192.4,47.2z"/><path fill="#000000" d="M25.3,116.3c-3.2,0.8-7.8,3.6-10,6c-1.1,1.2-2.8,3.8-3.7,5.7c-1.5,3.1-1.6,3.9-1.6,8.3c0,4.6,0.1,5,1.9,8.7c2.2,4.6,5.2,7.4,10,9.8c3,1.4,3.8,1.6,8.2,1.6c4.4,0,5.1-0.2,8.3-1.6c4.7-2.2,7.7-5.1,10-9.7c1.8-3.7,1.9-4.1,1.9-8.8c0-4.6-0.1-5.1-1.9-8.8c-3.5-6.9-9.6-11.1-17.1-11.4C29.1,115.8,26.5,116,25.3,116.3z"/><path fill="#000000" d="M221.1,116.3c-3.2,0.8-7.8,3.6-10,6c-1.1,1.2-2.8,3.8-3.7,5.7c-1.5,3.1-1.6,3.9-1.6,8.3c0,4.6,0.1,5,1.9,8.7c2.3,4.6,5.2,7.5,10,9.7c3.1,1.5,3.9,1.6,8.3,1.6c4.4,0,5.1-0.2,8.3-1.6c4.7-2.2,7.7-5.1,10-9.7c1.8-3.7,1.9-4.1,1.9-8.8c0-4.6-0.1-5.1-1.9-8.8c-3.5-6.9-9.6-11.1-17.1-11.4C224.8,115.8,222.2,116,221.1,116.3z"/><path fill="#000000" d="M52.5,186c-5.4,1.8-9.7,5.7-12,10.6c-3.7,8-2.1,16.7,4,22.9c10.9,11.1,29.5,6.3,33.8-8.7c2.7-9.4-1.8-19.4-10.8-23.9c-2.9-1.4-4-1.6-7.7-1.8C56.5,185.1,54.6,185.3,52.5,186z"/><path fill="#000000" d="M190.8,186c-8.1,2.8-13.3,9.7-13.8,18.1c-0.6,11.7,8.1,21.2,19.8,21.4c6.9,0.1,12.6-2.8,16.8-8.3c2.7-3.6,3.8-7.1,3.8-12c-0.1-6.8-2.8-12.1-8.1-16.2C204.4,185.3,196.6,184,190.8,186z"/><path fill="#000000" d="M123.2,214.1c-3.2,0.8-7.8,3.6-10,6c-1.1,1.2-2.8,3.8-3.7,5.7c-1.5,3.1-1.6,3.9-1.6,8.3c0,4.4,0.2,5.1,1.6,8.3c0.9,1.9,2.5,4.4,3.7,5.7l2.2,2.3H128h12.6l2.2-2.3c1.2-1.3,2.9-3.8,3.7-5.7c1.5-3.1,1.6-3.9,1.6-8.3c0-4.6-0.1-5-1.9-8.7c-3.5-6.9-9.6-11.1-17.1-11.4C127,213.7,124.3,213.9,123.2,214.1z"/></g></g></g>
</svg>